<?xml version="1.0" standalone="no"?>
<!DOCTYPE svg PUBLIC "-//W3C//DTD SVG 20010904//EN"
 "http://www.w3.org/TR/2001/REC-SVG-20010904/DTD/svg10.dtd">
<svg version="1.0" xmlns="http://www.w3.org/2000/svg"
 width="192.000000pt" height="192.000000pt" viewBox="0 0 192.000000 192.000000"
 preserveAspectRatio="xMidYMid meet">
<metadata>
Created by potrace 1.14, written by Peter Selinger 2001-2017
</metadata>
<g transform="translate(0.000000,192.000000) scale(0.100000,-0.100000)"
fill="#000000" stroke="none">
<path d="M4 1911 c-2 -2 -4 -40 -4 -83 l0 -78 429 0 429 0 4 60 c1 33 1 70 -2
82 l-6 22 -423 0 c-232 1 -425 -1 -427 -3z"/>
<path d="M1058 1840 c-2 -45 0 -87 3 -92 4 -6 99 -11 245 -12 224 -2 242 -3
281 -24 86 -45 134 -136 129 -246 -4 -95 -55 -173 -141 -215 -34 -16 -65 -19
-273 -20 -130 0 -237 -2 -238 -4 -3 -3 -7 -149 -5 -173 1 -14 462 -16 525 -2
146 31 281 165 322 323 14 53 12 189 -4 240 -33 109 -127 219 -230 271 l-57
29 -277 3 -276 3 -4 -81z"/>
<path d="M0 1485 l0 -82 430 0 430 0 0 81 0 81 -430 1 -430 1 0 -82z"/>
<path d="M4 1211 c-2 -2 -4 -39 -4 -81 l0 -77 430 0 430 0 0 82 0 81 -426 -1
c-234 0 -428 -2 -430 -4z"/>
<path d="M447 884 c-1 -1 -28 -4 -60 -7 -117 -11 -211 -63 -293 -164 -105
-129 -123 -332 -42 -484 40 -77 119 -153 197 -192 l65 -32 273 -3 273 -3 0 93
0 94 -239 1 c-226 0 -242 2 -285 23 -150 72 -182 288 -61 413 62 64 76 67 344
67 l241 0 0 95 0 95 -67 0 c-38 1 -130 2 -206 3 -76 1 -139 1 -140 1z"/>
<path d="M1059 838 c-2 -73 0 -120 4 -125 4 -4 651 -7 825 -4 l32 1 0 80 0 80
-430 0 -430 0 -1 -32z"/>
<path d="M1060 440 c0 -44 3 -80 8 -80 13 -1 806 -2 830 -1 21 1 22 5 22 81
l0 80 -430 0 -430 0 0 -80z"/>
<path d="M1058 123 c-1 -27 -2 -63 0 -80 l3 -33 430 0 429 0 0 80 0 80 -429 0
-429 0 -4 -47z"/>
</g>
</svg>
